<?xml version="1.0" encoding="UTF-8" standalone="no"?>
<!-- Generator: Adobe Illustrator 27.4.1, SVG Export Plug-In . SVG Version: 6.00 Build 0)  -->

<svg
   version="1.1"
   id="Layer_1"
   x="0px"
   y="0px"
   viewBox="0 0 877.20001 1013"
   xml:space="preserve"
   sodipodi:docname="serofoi.svg"
   inkscape:version="1.1.2 (0a00cf5339, 2022-02-04)"
   width="877.20001"
   height="1013"
   xmlns:inkscape="http://www.inkscape.org/namespaces/inkscape"
   xmlns:sodipodi="http://sodipodi.sourceforge.net/DTD/sodipodi-0.dtd"
   xmlns="http://www.w3.org/2000/svg"
   xmlns:svg="http://www.w3.org/2000/svg"><defs
   id="defs204">
	
	
	
	
</defs><sodipodi:namedview
   id="namedview202"
   pagecolor="#ffffff"
   bordercolor="#666666"
   borderopacity="1.0"
   inkscape:pageshadow="2"
   inkscape:pageopacity="0.0"
   inkscape:pagecheckerboard="0"
   showgrid="false"
   inkscape:zoom="0.81018519"
   inkscape:cx="429.53143"
   inkscape:cy="407.93143"
   inkscape:window-width="1869"
   inkscape:window-height="1057"
   inkscape:window-x="51"
   inkscape:window-y="23"
   inkscape:window-maximized="1"
   inkscape:current-layer="Layer_1"
   fit-margin-top="0"
   fit-margin-left="0"
   fit-margin-right="0"
   fit-margin-bottom="0" />
<style
   type="text/css"
   id="style2">
	.st0{fill:url(#SVGID_1_);}
	.st1{fill:#FFFFFF;}
	.st2{font-family:'ClashDisplay-Medium';}
	.st3{font-size:161px;}
	.st4{fill:#60B0DA;}
	.st5{fill:none;stroke:#0D6C9F;stroke-width:19;stroke-miterlimit:10;}
	.st6{fill:url(#SVGID_00000167377132911584269940000008287109329421601946_);}
	.st7{fill:url(#SVGID_00000002342337923369425850000000749183006873102011_);}
	.st8{fill:url(#SVGID_00000086693528120742393820000002250536015557320836_);}
	.st9{fill:url(#SVGID_00000101070084546506667050000016628859006665228193_);}
	.st10{fill:url(#SVGID_00000065061668414999423450000002951387670655122607_);}
	.st11{fill:url(#SVGID_00000000910096209763581240000004222919559987281813_);}
	.st12{fill:url(#SVGID_00000054986098956348586740000001862416911914461342_);}
	.st13{fill:url(#SVGID_00000046319162849673083670000015956368090084152509_);}
	.st14{fill:#D8E039;}
	.st15{fill:#0D6C9F;}
	.st16{fill-rule:evenodd;clip-rule:evenodd;}
</style>
<g
   id="g19"
   transform="translate(-101.4,-33.5)">
		
			<linearGradient
   id="SVGID_1_"
   gradientUnits="userSpaceOnUse"
   x1="-3265.4399"
   y1="1336.21"
   x2="-2252.48"
   y2="1336.21"
   gradientTransform="matrix(0,-1,-1,0,1876.21,-2218.96)">
			<stop
   offset="0"
   style="stop-color:#1D6CA1"
   id="stop4" />
			<stop
   offset="0.14"
   style="stop-color:#195E8C"
   id="stop6" />
			<stop
   offset="0.54"
   style="stop-color:#113A56"
   id="stop8" />
			<stop
   offset="0.84"
   style="stop-color:#0C2435"
   id="stop10" />
			<stop
   offset="1"
   style="stop-color:#0B1C29"
   id="stop12" />
		</linearGradient>
		<polygon
   class="st0"
   points="978.6,286.8 540,33.5 101.4,286.8 101.4,793.2 540,1046.5 978.6,793.2 "
   id="polygon15"
   style="fill:url(#SVGID_1_)" />
		<polygon
   class="st1"
   points="119.5,291.9 119.5,778 540.4,1021.1 961.4,778 961.4,291.9 540.4,48.9 "
   id="polygon17"
   transform="translate(-0.45,5)" />
	</g><g
   aria-label="serofoi"
   id="text21"
   class="st2 st3"
   style="font-size:161px;font-family:ClashDisplay-Medium"><path
     d="m 229.26224,683.50739 v 13.67871 q -6.13184,-3.14454 -12.73535,-4.7168 -6.60352,-1.57227 -13.67871,-1.57227 -10.77002,0 -16.19434,3.30176 -5.3457,3.30176 -5.3457,9.90527 0,5.03125 3.85205,7.93995 3.85205,2.83007 15.48681,5.42431 l 4.95264,1.10059 q 15.4082,3.30176 21.85449,9.35498 6.5249,5.97461 6.5249,16.74463 0,12.26367 -9.74804,19.41748 -9.66944,7.15381 -26.6499,7.15381 -7.0752,0 -14.7793,-1.41504 -7.62549,-1.33643 -16.11572,-4.08789 v -14.93653 q 8.01855,4.16651 15.80127,6.28907 7.78271,2.04394 15.4082,2.04394 10.21972,0 15.72265,-3.45898 5.50293,-3.5376 5.50293,-9.90528 0,-5.89599 -4.00927,-9.04052 -3.93067,-3.14453 -17.37354,-6.05323 l -5.03125,-1.1792 q -13.44287,-2.83007 -19.41748,-8.64746 -5.97461,-5.89599 -5.97461,-16.11572 0,-12.4209 8.80469,-19.18164 8.80469,-6.76074 24.99902,-6.76074 8.01856,0 15.09375,1.1792 7.0752,1.1792 13.04981,3.5376 z"
     id="path11102" /><path
     d="m 332.32425,721.32037 v 7.0752 h -66.50684 q 0.94336,14.93652 8.96192,22.79785 8.09717,7.78272 22.4834,7.78272 8.333,0 16.11572,-2.04395 7.86133,-2.04395 15.56543,-6.13184 v 13.67871 q -7.78272,3.30176 -15.9585,5.03125 -8.17578,1.7295 -16.5874,1.7295 -21.06836,0 -33.41064,-12.26367 -12.26368,-12.26368 -12.26368,-33.17481 0,-21.61865 11.63477,-34.27539 11.71338,-12.73535 31.52392,-12.73535 17.76661,0 28.06495,11.47754 10.37695,11.39892 10.37695,31.05224 z m -14.46484,-4.24511 q -0.15723,-11.87061 -6.68213,-18.9458 -6.44629,-7.0752 -17.1377,-7.0752 -12.10644,0 -19.41748,6.83936 -7.23242,6.83935 -8.33301,19.26025 z"
     id="path11104" /><path
     d="m 407.08548,694.43463 q -2.43701,-1.41504 -5.3457,-2.04394 -2.83008,-0.70752 -6.28907,-0.70752 -12.26367,0 -18.86718,8.01855 -6.52491,7.93994 -6.52491,22.87647 v 46.38183 h -14.54345 v -88.04687 h 14.54345 v 13.67871 q 4.55957,-8.01856 11.87061,-11.87061 7.31103,-3.93066 17.7666,-3.93066 1.49365,0 3.30176,0.23584 1.8081,0.15722 4.00928,0.55029 z"
     id="path11106" /><path
     d="m 452.83841,691.05426 q -11.63477,0 -18.39551,9.11914 -6.76074,9.04053 -6.76074,24.8418 0,15.80127 6.68213,24.92041 6.76074,9.04053 18.47412,9.04053 11.55615,0 18.31689,-9.11915 6.76075,-9.11914 6.76075,-24.84179 0,-15.64405 -6.76075,-24.76319 -6.76074,-9.19775 -18.31689,-9.19775 z m 0,-12.26367 q 18.86719,0 29.63721,12.26367 10.77002,12.26367 10.77002,33.96094 0,21.61865 -10.77002,33.96094 -10.77002,12.26367 -29.63721,12.26367 -18.9458,0 -29.71582,-12.26367 -10.69141,-12.34229 -10.69141,-33.96094 0,-21.69727 10.69141,-33.96094 10.77002,-12.26367 29.71582,-12.26367 z"
     id="path11108" /><path
     d="m 561.79642,646.63776 v 12.02783 h -13.83594 q -7.78272,0 -10.84863,3.14453 -2.98731,3.14453 -2.98731,11.32031 v 7.78272 h 23.81983 v 11.2417 h -23.81983 v 76.80517 h -14.54345 v -76.80517 h -13.83594 v -11.2417 h 13.83594 v -6.13184 q 0,-14.70068 6.83935,-21.38281 6.83936,-6.76074 21.69727,-6.76074 z"
     id="path11110" /><path
     d="m 608.02103,691.05426 q -11.63477,0 -18.39551,9.11914 -6.76074,9.04053 -6.76074,24.8418 0,15.80127 6.68213,24.92041 6.76074,9.04053 18.47412,9.04053 11.55615,0 18.31689,-9.11915 6.76074,-9.11914 6.76074,-24.84179 0,-15.64405 -6.76074,-24.76319 -6.76074,-9.19775 -18.31689,-9.19775 z m 0,-12.26367 q 18.86718,0 29.6372,12.26367 10.77002,12.26367 10.77002,33.96094 0,21.61865 -10.77002,33.96094 -10.77002,12.26367 -29.6372,12.26367 -18.9458,0 -29.71582,-12.26367 -10.69141,-12.34229 -10.69141,-33.96094 0,-21.69727 10.69141,-33.96094 10.77002,-12.26367 29.71582,-12.26367 z"
     id="path11112" /><path
     d="m 672.4053,680.91315 h 14.46485 v 88.04687 H 672.4053 Z m 0,-34.27539 h 14.46485 v 18.31689 H 672.4053 Z"
     id="path11114" /></g><g
   id="g151"
   transform="translate(-101.4,-33.5)">
		<path
   class="st4"
   d="m 380.4,620.4 c 1,-4.8 13.6,3.9 10.7,4.4 9.5,-9.3 112.2,-200.2 123.8,-209.6 48.3,-39 115.5,-74.3 200.7,-74.3 0,-25.3 2.4,-53.2 2.4,-53.2 0,0 -154.1,-29.3 -245.3,74.9 -28.7,32.6 -77.9,198.8 -92.3,257.8 z"
   id="path23" />
		<path
   class="st5"
   d="m 719.8,310.2 c 0,0 -154.7,0 -199.3,55.9 -44.6,55.9 -52.4,60.5 -69,100.5 -16.6,40 -63.7,152.6 -63.7,152.6"
   id="path25" />
		
			<linearGradient
   id="SVGID_00000107562637114194943520000013982333147448006541_"
   gradientUnits="userSpaceOnUse"
   x1="421.16"
   y1="712.54999"
   x2="421.16"
   y2="421.23001"
   gradientTransform="matrix(1,0,0,-1,0,1080)">
			<stop
   offset="0"
   style="stop-color:#4DAADF"
   id="stop27" />
			<stop
   offset="0.26"
   style="stop-color:#6BB6B1"
   id="stop29" />
			<stop
   offset="0.6"
   style="stop-color:#8FC47B"
   id="stop31" />
			<stop
   offset="0.86"
   style="stop-color:#A5CD5A"
   id="stop33" />
			<stop
   offset="1"
   style="stop-color:#AED14E"
   id="stop35" />
		</linearGradient>
		
			<rect
   x="418.10001"
   y="518.29999"
   style="fill:url(#SVGID_00000107562637114194943520000013982333147448006541_)"
   width="6.1999998"
   height="68.099998"
   id="rect38" />
		
			<linearGradient
   id="SVGID_00000093167682215349505480000006574737477050389693_"
   gradientUnits="userSpaceOnUse"
   x1="392.92001"
   y1="623.5"
   x2="392.92001"
   y2="395.26001"
   gradientTransform="matrix(1,0,0,-1,0,1080)">
			<stop
   offset="0"
   style="stop-color:#4DAADF"
   id="stop40" />
			<stop
   offset="0.26"
   style="stop-color:#6BB6B1"
   id="stop42" />
			<stop
   offset="0.6"
   style="stop-color:#8FC47B"
   id="stop44" />
			<stop
   offset="0.86"
   style="stop-color:#A5CD5A"
   id="stop46" />
			<stop
   offset="1"
   style="stop-color:#AED14E"
   id="stop48" />
		</linearGradient>
		
			<rect
   x="389.79999"
   y="574.70001"
   style="fill:url(#SVGID_00000093167682215349505480000006574737477050389693_)"
   width="6.1999998"
   height="53.400002"
   id="rect51" />
		
			<linearGradient
   id="SVGID_00000060746936693013548760000005881342740243181735_"
   gradientUnits="userSpaceOnUse"
   x1="467.79999"
   y1="939.34998"
   x2="467.79999"
   y2="480.42001"
   gradientTransform="matrix(1,0,0,-1,0,1080)">
			<stop
   offset="0"
   style="stop-color:#4DAADF"
   id="stop53" />
			<stop
   offset="0.26"
   style="stop-color:#6BB6B1"
   id="stop55" />
			<stop
   offset="0.6"
   style="stop-color:#8FC47B"
   id="stop57" />
			<stop
   offset="0.86"
   style="stop-color:#A5CD5A"
   id="stop59" />
			<stop
   offset="1"
   style="stop-color:#AED14E"
   id="stop61" />
		</linearGradient>
		
			<rect
   x="464.70001"
   y="352.10001"
   style="fill:url(#SVGID_00000060746936693013548760000005881342740243181735_)"
   width="6.1999998"
   height="107.3"
   id="rect64" />
		
			<linearGradient
   id="SVGID_00000111889055351578574410000014630265533006677939_"
   gradientUnits="userSpaceOnUse"
   x1="541.08002"
   y1="818.01001"
   x2="541.08002"
   y2="668.89001"
   gradientTransform="matrix(1,0,0,-1,0,1080)">
			<stop
   offset="0"
   style="stop-color:#4DAADF"
   id="stop66" />
			<stop
   offset="0.26"
   style="stop-color:#6BB6B1"
   id="stop68" />
			<stop
   offset="0.6"
   style="stop-color:#8FC47B"
   id="stop70" />
			<stop
   offset="0.86"
   style="stop-color:#A5CD5A"
   id="stop72" />
			<stop
   offset="1"
   style="stop-color:#AED14E"
   id="stop74" />
		</linearGradient>
		
			<rect
   x="538"
   y="307.70001"
   style="fill:url(#SVGID_00000111889055351578574410000014630265533006677939_)"
   width="6.1999998"
   height="107.3"
   id="rect77" />
		
			<linearGradient
   id="SVGID_00000094616650126769520090000004853254509220364418_"
   gradientUnits="userSpaceOnUse"
   x1="574.7868"
   y1="805.38"
   x2="574.48682"
   y2="653.95001"
   gradientTransform="matrix(1,0,0,-1,0,1080)">
			<stop
   offset="0"
   style="stop-color:#4DAADF"
   id="stop79" />
			<stop
   offset="0.26"
   style="stop-color:#6BB6B1"
   id="stop81" />
			<stop
   offset="0.6"
   style="stop-color:#8FC47B"
   id="stop83" />
			<stop
   offset="0.86"
   style="stop-color:#A5CD5A"
   id="stop85" />
			<stop
   offset="1"
   style="stop-color:#AED14E"
   id="stop87" />
		</linearGradient>
		
			<rect
   x="571.5"
   y="320.29999"
   style="fill:url(#SVGID_00000094616650126769520090000004853254509220364418_)"
   width="6.1999998"
   height="107.3"
   id="rect90" />
		
			<linearGradient
   id="SVGID_00000123411744980889805540000013693827207424214406_"
   gradientUnits="userSpaceOnUse"
   x1="631.75"
   y1="827.23999"
   x2="631.75"
   y2="594.82001"
   gradientTransform="matrix(1,0,0,-1,0,1080)">
			<stop
   offset="0"
   style="stop-color:#4DAADF"
   id="stop92" />
			<stop
   offset="0.26"
   style="stop-color:#6BB6B1"
   id="stop94" />
			<stop
   offset="0.6"
   style="stop-color:#8FC47B"
   id="stop96" />
			<stop
   offset="0.86"
   style="stop-color:#A5CD5A"
   id="stop98" />
			<stop
   offset="1"
   style="stop-color:#AED14E"
   id="stop100" />
		</linearGradient>
		
			<rect
   x="628.70001"
   y="353"
   style="fill:url(#SVGID_00000123411744980889805540000013693827207424214406_)"
   width="6.1999998"
   height="107.3"
   id="rect103" />
		
			<linearGradient
   id="SVGID_00000139266650358471527100000012152285977486081451_"
   gradientUnits="userSpaceOnUse"
   x1="679.78003"
   y1="1001.81"
   x2="679.78003"
   y2="457.37"
   gradientTransform="matrix(1,0,0,-1,0,1080)">
			<stop
   offset="0"
   style="stop-color:#4DAADF"
   id="stop105" />
			<stop
   offset="0.26"
   style="stop-color:#6BB6B1"
   id="stop107" />
			<stop
   offset="0.6"
   style="stop-color:#8FC47B"
   id="stop109" />
			<stop
   offset="0.86"
   style="stop-color:#A5CD5A"
   id="stop111" />
			<stop
   offset="1"
   style="stop-color:#AED14E"
   id="stop113" />
		</linearGradient>
		
			<rect
   x="676.70001"
   y="306.10001"
   style="fill:url(#SVGID_00000139266650358471527100000012152285977486081451_)"
   width="6.1999998"
   height="282.5"
   id="rect116" />
		
			<linearGradient
   id="SVGID_00000169534642528869449070000009396313659755323794_"
   gradientUnits="userSpaceOnUse"
   x1="705.85999"
   y1="991.38"
   x2="705.85999"
   y2="532.46002"
   gradientTransform="matrix(1,0,0,-1,0,1080)">
			<stop
   offset="0"
   style="stop-color:#4DAADF"
   id="stop118" />
			<stop
   offset="0.26"
   style="stop-color:#6BB6B1"
   id="stop120" />
			<stop
   offset="0.6"
   style="stop-color:#8FC47B"
   id="stop122" />
			<stop
   offset="0.86"
   style="stop-color:#A5CD5A"
   id="stop124" />
			<stop
   offset="1"
   style="stop-color:#AED14E"
   id="stop126" />
		</linearGradient>
		
			<rect
   x="702.79999"
   y="283.20001"
   style="fill:url(#SVGID_00000169534642528869449070000009396313659755323794_)"
   width="6.1999998"
   height="151.8"
   id="rect129" />
		<circle
   class="st14"
   cx="391"
   cy="617.20001"
   r="18.299999"
   id="circle131" />
		<circle
   class="st14"
   cx="468.89999"
   cy="402.5"
   r="18.299999"
   id="circle133" />
		<circle
   class="st14"
   cx="422.20001"
   cy="551.5"
   r="18.299999"
   id="circle135" />
		<circle
   class="st14"
   cx="706.20001"
   cy="310.10001"
   r="18.299999"
   id="circle137" />
		<circle
   class="st14"
   cx="679"
   cy="313.20001"
   r="18.299999"
   id="circle139" />
		<circle
   class="st14"
   cx="540.29999"
   cy="370.79999"
   r="18.299999"
   id="circle141" />
		<circle
   class="st14"
   cx="575.79999"
   cy="337.29999"
   r="18.299999"
   id="circle143" />
		<circle
   class="st14"
   cx="632.29999"
   cy="337.70001"
   r="18.299999"
   id="circle145" />
		<rect
   x="391.20001"
   y="280.39999"
   class="st4"
   width="46.400002"
   height="31.700001"
   id="rect147" />
		<rect
   x="391.20001"
   y="318"
   class="st14"
   width="46.400002"
   height="31.700001"
   id="rect149" />
	</g><path
   class="st15"
   d="M 266.9,598.3 V 249.4 c 0,-5.7 -4.6,-10.3 -10.3,-10.3 v 0 c -5.7,0 -10.3,4.6 -10.3,10.3 v 363.3 c 0,9.1 7.4,16.5 16.5,16.5 h 364 c 5.7,0 10.3,-4.6 10.3,-10.3 v 0 c 0,-5.7 -4.6,-10.3 -10.3,-10.3 H 277.2 c -5.7,0.1 -10.3,-4.6 -10.3,-10.3 z"
   id="path153" />
<g
   id="g199"
   transform="translate(-101.4,-33.5)">
	<g
   id="g179">
		<path
   class="st16"
   d="m 570.1,912.4 c -1.5,0 -2.7,1.3 -2.7,2.8 0,1.5 1.2,2.8 2.7,2.8 1.5,0 2.7,-1.2 2.7,-2.8 0,-1.6 -1.2,-2.8 -2.7,-2.8 m 10.3,-7.3 c -4.2,0 -7.2,2.6 -7.2,6.4 0,3.8 3,6.4 7.2,6.4 4.2,0 7.2,-2.6 7.2,-6.4 0,-3.8 -2.9,-6.4 -7.2,-6.4 m 0,12.5 c -1.4,0 -1.8,-1.2 -1.8,-6.1 0,-4.9 0.4,-6.1 1.8,-6.1 1.4,0 1.8,1.1 1.8,6.1 0,5 -0.4,6.1 -1.8,6.1 m 16.7,-12.7 c -1.6,0 -3.2,1.3 -3.5,3 l -4.9,-3.1 v 13.1 h 5 l 0.1,-9.3 c 0,-2 2.2,-2 3.3,-2 z m 8.8,9.5 h -7.4 l 2.1,-1.4 c 0.9,0.3 1.2,0.3 2.3,0.3 4.1,0 6,-1.4 6,-4.1 0,-1.5 -0.8,-2.9 -2.5,-3.6 h 3.1 v -1.9 l -3.7,1.7 c -0.8,-0.3 -1.8,-0.4 -3,-0.4 -4,0 -5.9,1.8 -5.9,4 0,1.7 1,2.9 2.6,3.6 l -2.7,1.7 1.2,4.3 h 11.7 c 0,-0.1 0.1,-0.2 0.1,-0.3 v -1.5 c -0.2,-1.5 -1.3,-2.4 -3.9,-2.4 m -2.9,-9.1 c 1.5,0 1.7,1.5 1.7,3.9 0,2.1 -0.2,3.8 -1.7,3.8 -1.5,0 -1.7,-1.7 -1.7,-3.8 0,-2.4 0.2,-3.9 1.7,-3.9 M 539.6,905 c -1.2,0 -3.3,0.3 -4.8,0.9 v 1.8 c 1.1,-1.1 2.8,-2.4 4.3,-2.4 1.5,0 1.6,1.3 1.6,2.3 v 2.7 c -5,0 -7.2,1.8 -7.2,4.3 0,2.2 1.5,3.3 3.7,3.3 2.2,0 3.7,-1.4 3.8,-2.8 l 4.8,2.9 v -8.2 c -0.2,-3.8 -2.2,-4.8 -6.2,-4.8 m 1,9.7 c 0,0.6 -0.4,1.3 -1.2,1.3 -0.9,0 -1.4,-0.9 -1.4,-2.2 0,-1.5 0.7,-2.8 2.6,-3.2 z m 13.9,-10.1 h -1.9 v -3.3 l -4.9,3.3 h -1.9 v 1 h 1.8 V 918 h 4.9 v -12.3 h 1.9 z m -27,-4.6 v 7.4 c -0.4,-1.5 -1.8,-2.5 -3.6,-2.5 -3.2,0 -5.3,2.6 -5.3,6.5 0,3.9 1.8,6.3 5.2,6.3 2.2,0 3.5,-1.2 3.8,-2.9 l 5,3 V 903 Z m 0,14.1 c 0,1.2 -0.5,2 -1.5,2 -1.9,0 -2,-2 -2,-4.7 0,-3 0.3,-4.7 2,-4.7 1,0 1.5,0.8 1.5,2 z M 560,905 c -1.2,0 -3.3,0.3 -4.8,0.9 v 1.8 c 1.1,-1.1 2.8,-2.4 4.3,-2.4 1.5,0 1.6,1.3 1.6,2.3 v 2.7 c -5,0 -7.2,1.8 -7.2,4.3 0,2.2 1.5,3.3 3.7,3.3 2.2,0 3.7,-1.4 3.8,-2.8 l 4.8,2.9 v -8.2 C 566.1,906 564.1,905 560,905 m 1,9.7 c 0,0.6 -0.4,1.3 -1.2,1.3 -0.9,0 -1.4,-0.9 -1.4,-2.2 0,-1.5 0.7,-2.8 2.6,-3.2 z"
   id="path157" />
		<g
   id="g177">
			<path
   d="m 443.5,918.9 v -8 h 0.5 v 1.7 h 0.1 c 0.3,-1 1.2,-1.8 2.6,-1.8 1.9,0 3,1.3 3,3.1 0,1.8 -1.1,3.1 -3,3.1 -1.3,0 -2.3,-0.7 -2.6,-1.9 v 3.8 z m 3.1,-2.4 c 1.5,0 2.5,-0.7 2.5,-2.6 0,-1.9 -1.1,-2.6 -2.5,-2.6 -1.6,0 -2.6,1 -2.6,2.6 v 0.1 c 0.1,1.5 1.1,2.5 2.6,2.5 z"
   id="path159" />
			<path
   d="m 450.5,913.8 c 0,-1.8 1.3,-3.1 3.2,-3.1 1.9,0 3.2,1.3 3.2,3.1 0,1.8 -1.3,3.1 -3.2,3.1 -1.9,0 -3.2,-1.3 -3.2,-3.1 z m 5.9,0 c 0,-1.6 -0.9,-2.6 -2.7,-2.6 -1.8,0 -2.7,1 -2.7,2.6 0,1.6 0.9,2.6 2.7,2.6 1.8,0 2.7,-1 2.7,-2.6 z"
   id="path161" />
			<path
   d="m 459.5,916.8 -2,-6 h 0.6 l 1.5,4.4 0.3,1.1 v 0 l 0.4,-1.1 1.8,-4.3 h 0.7 l 1.8,4.3 0.4,1.1 v 0 l 0.3,-1.1 1.5,-4.4 h 0.6 l -2,6 h -0.7 l -1.7,-4.3 -0.5,-1.2 v 0 l -0.5,1.2 -1.8,4.3 z"
   id="path163" />
			<path
   d="m 468,913.8 c 0,-1.8 1.2,-3.1 3.1,-3.1 1.7,0 2.9,1 2.9,2.8 0,0.2 0,0.4 -0.1,0.5 h -5.4 c 0,1.5 0.8,2.4 2.5,2.4 1.5,0 2.3,-0.6 2.3,-1.6 v -0.1 h 0.5 v 0.1 c 0,1.2 -1.2,2.1 -2.8,2.1 -1.8,0.1 -3,-1.2 -3,-3.1 z m 0.5,-0.1 h 5 c 0,-0.1 0,-0.2 0,-0.3 0,-1.4 -0.9,-2.2 -2.4,-2.2 -1.8,0 -2.5,1 -2.6,2.5 z"
   id="path165" />
			<path
   d="m 475.2,916.8 v -6 h 0.5 v 1.6 0 c 0.2,-0.9 0.9,-1.8 2.1,-1.8 1.4,0 2,1 2,2.1 v 0.5 h -0.5 v -0.4 c 0,-1.1 -0.5,-1.7 -1.6,-1.7 -1.4,0 -2,0.9 -2,2.4 v 3.2 h -0.5 z"
   id="path167" />
			<path
   d="m 480.7,913.8 c 0,-1.8 1.2,-3.1 3.1,-3.1 1.7,0 2.9,1 2.9,2.8 0,0.2 0,0.4 -0.1,0.5 h -5.4 c 0,1.5 0.8,2.4 2.5,2.4 1.5,0 2.3,-0.6 2.3,-1.6 v -0.1 h 0.5 v 0.1 c 0,1.2 -1.2,2.1 -2.8,2.1 -1.9,0.1 -3,-1.2 -3,-3.1 z m 0.5,-0.1 h 5 c 0,-0.1 0,-0.2 0,-0.3 0,-1.4 -0.9,-2.2 -2.4,-2.2 -1.8,0 -2.6,1 -2.6,2.5 z"
   id="path169" />
			<path
   d="m 487.5,913.8 c 0,-1.8 1.1,-3.1 2.9,-3.1 1.4,0 2.4,0.8 2.6,1.8 v 0 -3.9 h 0.5 v 8.1 H 493 v -1.7 0 c -0.3,1.2 -1.3,1.9 -2.6,1.9 -1.9,0.1 -2.9,-1.3 -2.9,-3.1 z m 3,2.7 c 1.5,0 2.5,-1 2.5,-2.5 v -0.1 c 0,-1.6 -1,-2.6 -2.6,-2.6 -1.4,0 -2.5,0.7 -2.5,2.6 0,1.9 1.2,2.6 2.6,2.6 z"
   id="path171" />
			<path
   d="m 500,916.8 v -8.1 h 0.5 v 3.9 0 c 0.3,-1 1.2,-1.8 2.6,-1.8 1.9,0 2.9,1.3 2.9,3.1 0,1.8 -1,3.1 -3,3.1 -1.3,0 -2.3,-0.7 -2.6,-1.9 v 0 1.8 z m 3,-0.3 c 1.5,0 2.5,-0.7 2.5,-2.6 0,-1.9 -1,-2.6 -2.5,-2.6 -1.6,0 -2.6,1 -2.6,2.6 v 0.1 c 0.1,1.5 1.1,2.5 2.6,2.5 z"
   id="path173" />
			<path
   d="m 507.3,918.9 v -0.5 h 0.7 c 0.7,0 0.9,-0.2 1.2,-0.8 l 0.4,-0.8 -3,-5.9 h 0.6 l 1.9,3.8 0.7,1.5 v 0 l 0.7,-1.5 1.8,-3.8 h 0.6 l -3.3,6.9 c -0.4,0.8 -0.9,1.1 -1.7,1.1 z"
   id="path175" />
		</g>
	</g>
	<g
   id="g197">
		<path
   d="m 446.5,891.3 v -32 h 27.1 v 6.5 h -19.9 v 6.3 h 19.2 v 6.4 h -19.2 v 6.5 h 19.9 v 6.5 h -27.1 z"
   id="path181" />
		<path
   d="m 477,899.5 v -32.1 h 6.6 v 6.5 h 0.5 c 0.9,-4.6 3.9,-7 9.6,-7 7.4,0 11.5,4.9 11.5,12.5 0,7.6 -4,12.4 -11.2,12.4 -5.5,0 -8.6,-2.7 -9.4,-6.9 h -0.3 v 14.6 z m 14.2,-14.2 c 4.6,0 6.7,-1.5 6.7,-5.9 0,-4.4 -2.1,-5.9 -6.7,-5.9 -4.6,0 -7,1.6 -7,5.8 v 0.4 c 0,4.1 2.5,5.5 7,5.6 z"
   id="path183" />
		<path
   d="m 508.1,865 v -5.6 h 7.2 v 5.6 z m 0,26.3 v -24 h 7.2 v 24 z"
   id="path185" />
		<path
   d="m 527.4,891.3 -10.9,-24 h 8 l 7.2,17 h 0.5 l 7.2,-17 h 7.8 l -11,24 z"
   id="path187" />
		<path
   d="m 546.3,879.4 c 0,-7.7 5.4,-12.5 13.3,-12.5 7.9,0 13,4.1 13,11.6 0,0.9 -0.1,1.5 -0.2,2.3 H 553 c 0.2,3.7 1.9,5.3 6.5,5.3 4.2,0 5.7,-1.1 5.7,-3.2 v -0.5 h 7.2 v 0.5 c 0,5.2 -5.1,8.8 -12.7,8.8 -7.9,0.1 -13.4,-3.8 -13.4,-12.3 z m 6.8,-2.4 h 12.7 c -0.2,-3.2 -2.1,-4.5 -6.3,-4.5 -4.2,0 -6.1,1.4 -6.4,4.5 z"
   id="path189" />
		<path
   d="m 575.5,891.3 v -24 h 6.6 v 6.4 h 0.4 c 0.7,-3.9 3.2,-6.8 8,-6.8 5.3,0 7.5,3.7 7.5,8.4 v 4 h -7 v -2.5 c 0,-2.6 -1,-3.8 -4,-3.8 -3.2,0 -4.3,1.5 -4.3,4.5 v 13.9 z"
   id="path191" />
		<path
   d="M 599.9,883.1 V 883 h 7.2 v 0.4 c 0,2.2 1.3,2.7 5.4,2.7 3.8,0 4.7,-0.6 4.7,-2.1 0,-1.3 -0.7,-1.7 -3.5,-2.1 l -6.7,-0.8 c -4.8,-0.5 -7.5,-2.7 -7.5,-6.7 0,-4 3.6,-7.5 11.8,-7.5 8.2,0 12.3,3 12.3,8.8 v 0.1 h -7.2 v -0.3 c 0,-2 -1,-3 -5.3,-3 -3.6,0 -4.5,0.6 -4.5,2.2 0,1.2 0.7,1.8 3.8,2.2 l 5.1,0.6 c 6.4,0.7 8.8,2.9 8.8,6.8 0,4.5 -4.5,7.5 -11.8,7.5 -8.2,0 -12.6,-3.1 -12.6,-8.7 z"
   id="path193" />
		<path
   d="m 625.8,879.4 c 0,-7.7 5.4,-12.5 13.3,-12.5 7.9,0 13,4.1 13,11.6 0,0.9 -0.1,1.5 -0.2,2.3 h -19.5 c 0.2,3.7 1.9,5.3 6.5,5.3 4.2,0 5.7,-1.1 5.7,-3.2 v -0.5 h 7.2 v 0.5 c 0,5.2 -5.1,8.8 -12.7,8.8 -7.8,0.1 -13.3,-3.8 -13.3,-12.3 z m 6.7,-2.4 h 12.7 c -0.2,-3.2 -2.1,-4.5 -6.3,-4.5 -4.2,0 -6,1.4 -6.4,4.5 z"
   id="path195" />
	</g>
</g>
</svg>
